Coordinates
version=1
nRows=21
nColumns=33
inDegrees=yes

Units are S.I. units (second, meters, Newtons, ...)
Angles are in degrees.

endheader
time	ground_thorax_rot_x	ground_thorax_rot_y	ground_thorax_rot_z	ground_thorax_tx	ground_thorax_ty	ground_thorax_tz	clav_prot_r	clav_elev_r	scapula_abduction_r	scapula_elevation_r	scapula_upward_rot_r	scapula_winging_r	shoulder_elv_r	plane_of_elev_r	axial_rot_r	elbow_flexion_r	pro_sup_r	wrist_flex_r	wrist_dev_r	clav_prot_l	clav_elev_l	scapula_abduction_l	scapula_elevation_l	scapula_upward_rot_l	scapula_winging_l	shoulder_elv_l	plane_of_elev_l	axial_rot_l	elbow_flexion_l	pro_sup_l	wrist_flex_l	wrist_dev_l
     12.87000000	     40.38959079	     14.11839496	     15.03811915	   -169.74616776	    811.49408678	      5.34633176	     13.95660836	     42.05428183	     40.85977306	     45.00000000	    -25.39345671	  -2969.94556758	  -4255.66742851	     32.43033527	     49.02787356	    731.63576280	   -342.03193749	     18.96283929	      9.54745400	      6.27466395	    -45.00000000	    -37.06222787	     45.00000000	    -39.90012927	    453.48227367	  -6766.49413760	     22.33432593	    -45.98768825	   -710.40735475	   -357.17624051	      9.11437940	    -19.25813598
     12.88000000	     40.49709105	     14.00724744	     14.87393270	   -172.06177983	    813.05488425	      5.25883496	     13.87995394	     41.97996038	     40.83010005	     45.00000000	    -25.43951018	  -2970.10538251	  -4255.48892756	     32.50085228	     49.11657008	    731.62018700	   -342.77258687	     18.94884218	      9.52632894	      6.32608097	    -45.00000000	    -37.15214068	     45.00000000	    -39.80738449	    453.76497975	  -6766.38783322	     22.24958983	    -46.45195486	   -710.26636709	   -357.57120393	      9.06141324	    -19.33613713
     12.89000000	     40.50839290	     13.89274082	     14.75089427	   -174.33951094	    814.61447932	      5.16558596	     13.81368025	     41.95638044	     40.78010912	     45.00000000	    -25.56701935	  -2970.15433503	  -4255.36102994	     32.51696676	     49.11969582	    731.62845425	   -343.54083175	     18.94234680	      9.56754879	      6.35373466	    -45.00000000	    -37.20605886	     45.00000000	    -39.76731956	    454.00108857	  -6766.19853890	     22.17299767	    -46.68685331	   -710.24244218	   -357.99844200	      9.04825365	    -19.38574251
     12.90000000	     40.54895788	     13.77950970	     14.65663851	   -176.58046486	    816.16711188	      5.06714808	     13.74665993	     41.86152869	     40.74339880	     45.00000000	    -25.67844113	  -2970.21769048	  -4255.24357953	     32.55327495	     49.09887993	    731.59441236	   -344.33326972	     18.92417915	      9.58492860	      6.41537976	    -45.00000000	    -37.19155281	     45.00000000	    -39.77175821	    454.24358930	  -6766.07252353	     22.10620840	    -46.94247987	   -710.22862271	   -358.45038635	      9.03057302	    -19.43784520
     12.91000000	     40.53047383	     14.06746434	     14.97355806	   -178.78608964	    817.70529162	      4.96433280	     13.86123096	     41.18294154	     40.65900128	     45.00000000	    -26.65460150	  -2970.23002865	  -4254.95654420	     32.71105972	     48.83329707	    731.46951909	   -345.59671545	     18.84658997	      9.49830958	      6.85543052	    -45.00000000	    -36.89200330	     45.00000000	    -40.99545887	    454.46876414	  -6765.81367711	     22.38555541	    -47.19738036	   -710.20570018	   -359.17998732	      9.02140427	    -19.43907960
     12.92000000	     40.59106833	     13.71462927	     14.54812732	   -180.95653206	    819.22162972	      4.85772316	     13.71622446	     41.68698154	     40.54599871	     45.00000000	    -26.15904142	  -2970.23233196	  -4254.89409259	     32.56424915	     48.90282331	    731.56195772	   -346.32565306	     18.86881694	      9.66577589	      6.59755917	    -45.00000000	    -37.14382170	     45.00000000	    -40.02469964	    454.67887084	  -6765.73741462	     22.01826994	    -47.56489495	   -710.09417888	   -359.58669468	      9.13308899	    -19.51703441
     12.93000000	     40.60917779	     13.82989863	     14.73407254	   -183.09477480	    820.71001557	      4.74793659	     13.72374398	     40.99817509	     40.58762834	     45.00000000	    -27.01187854	  -2970.33645526	  -4254.67527637	     32.76555041	     48.77483473	    731.47005433	   -347.50833659	     18.81858312	      9.57748935	      6.94362010	    -45.00000000	    -36.89184585	     45.00000000	    -40.98403112	    454.94439452	  -6765.55449062	     22.24569169	    -47.93994368	   -710.07625876	   -360.30453772	      8.98692600	    -19.56229735
     12.94000000	     40.63739162	     13.67782913	     14.49278796	   -185.19719614	    822.16265289	      4.63536061	     13.68581612	     41.19065356	     40.42672110	     45.00000000	    -26.92951970	  -2970.32121703	  -4254.51490515	     32.74119958	     48.89004218	    731.51191801	   -348.31500693	     18.80542603	      9.67665323	      6.89267947	    -45.00000000	    -37.03293061	     45.00000000	    -40.61769085	    455.15759482	  -6765.41621170	     22.04396637	    -48.53489884	   -709.98194820	   -360.73055078	      9.06062093	    -19.61130368
     12.95000000	     40.67974629	     13.55963575	     14.29835552	   -187.26364037	    823.57482249	      4.51996006	     13.59760377	     41.31659158	     40.33528738	     45.00000000	    -26.89267607	  -2970.35478761	  -4254.44802550	     32.65279061	     48.96795831	    731.51879111	   -349.01219140	     18.79722150	      9.73670490	      6.79407786	    -45.00000000	    -37.14344795	     45.00000000	    -40.26865998	    455.34048639	  -6765.33739286	     21.84640194	    -48.95260991	   -709.88967170	   -361.10422424	      9.09820557	    -19.68111732
     12.96000000	     40.74483843	     13.34643898	     14.05274815	   -189.29139936	    824.94123941	      4.40138945	     13.49823333	     41.33086371	     40.31326355	     45.00000000	    -26.91446801	  -2970.39818403	  -4254.35444677	     32.65780317	     48.98913455	    731.57282948	   -349.67965456	     18.80662678	      9.77300519	      6.72903587	    -45.00000000	    -37.29736061	     45.00000000	    -39.92122114	    455.59633589	  -6765.26804298	     21.62696403	    -49.61045425	   -709.77041920	   -361.40480902	      9.07770345	    -19.77263418
     12.97000000	     40.97337496	     12.58981772	     13.27248787	   -191.26847021	    826.25163515	      4.27947457	     13.15534836	     40.76133291	     40.75072863	     45.00000000	    -26.40091710	  -2970.78501413	  -4254.64180245	     32.67501973	     48.84132226	    731.30583943	   -350.17498933	     18.76711315	      9.54858625	      6.62909717	    -45.00000000	    -37.16801507	     45.00000000	    -39.15811191	    455.70441352	  -6765.44498385	     21.70979093	    -49.96493753	   -709.99325010	   -361.62091792	      9.02472820	    -19.84787132
     12.98000000	     40.92173356	     12.73966685	     13.35357942	   -193.20384619	    827.50983363	      4.15299536	     13.23976298	     41.19115194	     40.29765083	     45.00000000	    -26.56124432	  -2970.60016830	  -4254.37349988	     32.67492338	     49.12579033	    731.41949724	   -350.64158057	     18.76255737	      9.64649038	      6.56868590	    -45.00000000	    -37.35784512	     45.00000000	    -38.94930181	    455.93665671	  -6765.22282009	     21.36353447	    -50.79477443	   -709.79152768	   -361.75072965	      9.11020540	    -19.87764170
     12.99000000	     40.76660407	     13.28820618	     14.06493010	   -195.08591589	    828.70840490	      4.02203173	     13.38547941	     41.06547271	     40.05641259	     45.00000000	    -27.65409853	  -2970.51658662	  -4254.04820038	     32.71107988	     49.20625433	    731.58329496	   -351.50551302	     18.76587533	      9.66487934	      6.90214972	    -45.00000000	    -37.17306319	     45.00000000	    -40.31209048	    456.22861178	  -6764.89379085	     21.37566664	    -51.07202230	   -709.61265252	   -362.19527135	      8.85524561	    -19.91759681
     13.00000000	     40.84765617	     13.12775318	     13.82267195	   -196.91185963	    829.84835249	      3.88645256	     13.33247353	     40.97092166	     40.00097196	     45.00000000	    -27.87298572	  -2970.50520489	  -4253.86865830	     32.72635995	     49.12549529	    731.56265290	   -352.35552094	     18.73724271	      9.75235736	      6.92458100	    -45.00000000	    -37.24968371	     45.00000000	    -40.39484901	    456.34539131	  -6764.79808504	     21.33197947	    -51.45467044	   -709.49536601	   -362.55718289	      8.90372010	    -19.94962157
     13.01000000	     40.84196047	     13.14725712	     13.91320009	   -198.67672605	    830.93108340	      3.74687841	     13.34080081	     40.80608812	     39.89033983	     45.00000000	    -28.24848573	  -2970.51985105	  -4253.74564501	     32.80877822	     49.13982534	    731.54393413	   -353.30304716	     18.69721306	      9.74869643	      7.05954185	    -45.00000000	    -37.10148638	     45.00000000	    -40.81961359	    456.55749244	  -6764.65222409	     21.33576624	    -51.86694893	   -709.48218849	   -362.96757180	      8.82620463	    -19.94756427
     13.02000000	     40.88991610	     13.05470862	     13.80929146	   -200.37944311	    831.96321062	      3.60398021	     13.30306303	     40.72345321	     39.82785458	     45.00000000	    -28.44603246	  -2970.53091341	  -4253.62480233	     32.82512862	     49.18750266	    731.50822946	   -354.21645465	     18.65578130	      9.78994437	      7.10383452	    -45.00000000	    -37.11795135	     45.00000000	    -40.98331333	    456.70805047	  -6764.54872475	     21.26230818	    -52.29537982	   -709.42204118	   -363.34831857	      8.81615279	    -19.95056033
     13.03000000	     40.91589473	     12.97361307	     13.76100283	   -202.01823951	    832.95121889	      3.45865111	     13.25113001	     40.65390323	     39.79859306	     45.00000000	    -28.59620381	  -2970.57522832	  -4253.55079505	     32.80345795	     49.22503988	    731.49263120	   -355.07614190	     18.62473967	      9.81482791	      7.11617704	    -45.00000000	    -37.10872124	     45.00000000	    -41.07310607	    456.86951670	  -6764.44914640	     21.15623945	    -52.61871331	   -709.39371273	   -363.70727451	      8.76624246	    -19.95238715
     13.04000000	     40.95490345	     12.93426009	     13.72897556	   -203.59358838	    833.90203692	      3.31200985	     13.23639786	     40.51807528	     39.72286668	     45.00000000	    -28.87736878	  -2970.59796857	  -4253.42687371	     32.87192768	     49.27888466	    731.42866666	   -355.96366228	     18.57741978	      9.82026109	      7.21826450	    -45.00000000	    -37.06315709	     45.00000000	    -41.40127059	    457.01689164	  -6764.34177939	     21.15049859	    -53.01475724	   -709.36422653	   -364.05258524	      8.69299540	    -19.94889485
     13.05000000	     40.95721516	     12.87417897	     13.70386324	   -205.10742762	    834.82094517	      3.16550282	     13.18615063	     40.47011859	     39.70012972	     45.00000000	    -28.98953126	  -2970.64011558	  -4253.36429107	     32.81942643	     49.28793211	    731.40280085	   -356.75670141	     18.54945384	      9.84692204	      7.22964200	    -45.00000000	    -37.06137576	     45.00000000	    -41.45959630	    457.17465993	  -6764.23622534	     21.04841683	    -53.31369007	   -709.38227347	   -364.32292456	      8.62352442	    -19.94674111
     13.06000000	     40.97975484	     12.83823335	     13.66334308	   -206.56835282	    835.71355976	      3.02080477	     13.16151481	     40.37979843	     39.64155057	     45.00000000	    -29.20806299	  -2970.66828550	  -4253.25269863	     32.83923302	     49.30574020	    731.36448105	   -357.50540797	     18.52158743	      9.85634920	      7.29745768	    -45.00000000	    -37.03557835	     45.00000000	    -41.65415485	    457.32768504	  -6764.13208628	     21.02414321	    -53.69225350	   -709.35562184	   -364.51125972	      8.51953467	    -19.95869677
     13.07000000	     40.97754759	     12.82279329	     13.67520617	   -207.98362869	    836.58106664	      2.88023208	     13.14460230	     40.29298258	     39.56544558	     45.00000000	    -29.41459000	  -2970.69990760	  -4253.17084103	     32.85958433	     49.30196138	    731.33210286	   -358.19696927	     18.50074954	      9.84685711	      7.37607794	    -45.00000000	    -36.96314429	     45.00000000	    -41.88735664	    457.48721932	  -6764.02426601	     21.01447295	    -53.99674810	   -709.37561654	   -364.59713923	      8.40016570	    -19.96802627
